<svg id="Layer_1" height="512" viewBox="0 0 128 128" width="512" xmlns="http://www.w3.org/2000/svg" data-name="Layer 1"><path d="m50.868 72.045h-6.628v-6.627a1.75 1.75 0 0 0 -1.75-1.75h-7.475a1.75 1.75 0 0 0 -1.75 1.75v6.627h-6.628a1.75 1.75 0 0 0 -1.75 1.75v7.476a1.75 1.75 0 0 0 1.75 1.75h6.628v6.628a1.75 1.75 0 0 0 1.75 1.75h7.475a1.75 1.75 0 0 0 1.75-1.75v-6.628h6.628a1.75 1.75 0 0 0 1.75-1.75v-7.471a1.75 1.75 0 0 0 -1.75-1.755zm-1.75 7.476h-6.628a1.75 1.75 0 0 0 -1.75 1.75v6.629h-3.975v-6.629a1.75 1.75 0 0 0 -1.75-1.75h-6.628v-3.976h6.628a1.75 1.75 0 0 0 1.75-1.75v-6.627h3.975v6.632a1.75 1.75 0 0 0 1.75 1.75h6.628z"/><path d="m116.051 97.66-7.79-7.614-7.79-7.614a9.3 9.3 0 0 0 -13.131.15l-.329.336a9.274 9.274 0 0 0 -.924 11.868h-17.832v-39.675a15.152 15.152 0 0 0 -5.3-11.518 11.657 11.657 0 0 1 -4.075-8.86v-5.275h2.349a1.75 1.75 0 0 0 1.75-1.75v-11.784a1.75 1.75 0 0 0 -1.75-1.75h-44.956a1.75 1.75 0 0 0 -1.75 1.75v11.784a1.75 1.75 0 0 0 1.75 1.75h2.349v5.275a11.656 11.656 0 0 1 -4.075 8.86 15.154 15.154 0 0 0 -5.3 11.518v49.222a9.5 9.5 0 0 0 9.493 9.493h40.022a9.428 9.428 0 0 0 3.238-.579 9.222 9.222 0 0 0 3.2.579h21.79a9.29 9.29 0 0 0 9.266-8.893l6.492 6.345a9.3 9.3 0 0 0 13.131-.15l.329-.336a9.286 9.286 0 0 0 -.151-13.132zm-26.541-12.3.329-.336a5.794 5.794 0 0 1 8.183-.094l6.54 6.392-8.416 8.612-6.54-6.392a5.786 5.786 0 0 1 -.095-8.182zm-76.76-25.748h52v35.172h-52zm35.389-33.654v-8.284h4.137v8.284zm-7.637 0v-8.284h4.137v8.284zm-7.637 0v-8.284h4.135v8.284zm-7.637 0v-8.284h4.137v8.284zm34.253 0h-3.705v-8.284h3.706zm-41.458-8.284h3.706v8.284h-3.706zm-1.2 28.576a15.151 15.151 0 0 0 5.3-11.517v-5.275h33.26v5.275a15.153 15.153 0 0 0 5.3 11.517 11.656 11.656 0 0 1 4.075 8.86v1h-52v-1a11.659 11.659 0 0 1 4.067-8.86zm-4.073 58.083v-6.049h45.194a9.236 9.236 0 0 0 -2.035 5.787v.469a9.235 9.235 0 0 0 2.035 5.786h-39.2a6 6 0 0 1 -5.994-5.993zm46.658.207v-.469a5.793 5.793 0 0 1 5.786-5.787h9.145v12.042h-9.145a5.793 5.793 0 0 1 -5.786-5.786zm33.362 0a5.793 5.793 0 0 1 -5.786 5.786h-9.145v-12.042h9.145a5.793 5.793 0 0 1 5.786 5.787zm20.929 3.806-.329.336a5.747 5.747 0 0 1 -4.072 1.741 5.607 5.607 0 0 1 -4.11-1.647l-6.54-6.392 8.416-8.612 6.54 6.392a5.787 5.787 0 0 1 .095 8.182z"/></svg>